# xmcd
#
# Track frame offsets:
#	150
#	20417
#	41472
#	61527
#
# Disc length: 1071 seconds
#
# Revision: 0
# Processed by: cddbd v1.5.2PL0 Copyright (c) Steve Scherf et al.
# Submitted via: audiograbber 1.83.01
#
DISCID=23042d04
DTITLE=Luther Vandross - I Can Make It Better (Single)
DYEAR=1900
DGENRE=R&B
TTITLE0=I Can Make It Better (Single Edit)
TTITLE1=I Can Make It Better (Charles Roane Remix Edit)
TTITLE2=I Can Make It Better (Soulshock and Karlin Remix Edit)
TTITLE3=A Kiss For Christmas
EXTD=
EXTT0=
EXTT1=
EXTT2=
EXTT3=
PLAYORDER=
